<?xml version="1.0" encoding="utf-8"?>
<!-- Generator: Adobe Illustrator 22.0.0, SVG Export Plug-In . SVG Version: 6.00 Build 0)  -->
<svg version="1.1" id="图层_1" xmlns="http://www.w3.org/2000/svg" xmlns:xlink="http://www.w3.org/1999/xlink" x="0px" y="0px"
	 viewBox="0 0 32 32" style="enable-background:new 0 0 32 32;" xml:space="preserve">
<style type="text/css">
	.st0{fill:#FFFFFF;fill-opacity:0;}
	.st1{fill:url(#SVGID_1_);}
	.st2{fill:url(#SVGID_2_);}
</style>
<rect class="st0" width="32" height="32"/>
<g>
	<linearGradient id="SVGID_1_" gradientUnits="userSpaceOnUse" x1="14.3605" y1="16" x2="31.9997" y2="16">
		<stop  offset="0" style="stop-color:#33BEFF"/>
		<stop  offset="1" style="stop-color:#268FFF"/>
	</linearGradient>
	<polygon class="st1" points="32,8 26.5,8 21,13.2 22.1,8 18.7,8 14.4,24 17.8,24 19.8,19.2 21.4,17.7 22.8,24 27.3,24 24.1,14.4 	
		"/>
	<linearGradient id="SVGID_2_" gradientUnits="userSpaceOnUse" x1="2.695312e-04" y1="16" x2="16.1844" y2="16">
		<stop  offset="0" style="stop-color:#33BEFF"/>
		<stop  offset="1" style="stop-color:#268FFF"/>
	</linearGradient>
	<path class="st2" d="M14.9,16.2c0-0.7-0.2-1.3-0.6-1.6c-0.4-0.4-1-0.6-1.7-0.6H6.5c-0.5,0-0.8-0.2-0.8-0.6c0-0.1,0-0.2,0-0.2
		c0,0,0-0.1,0-0.2c0-0.2,0-0.3,0-0.3c0.1-0.3,0.3-0.5,0.4-0.6c0.2-0.2,0.5-0.3,1-0.3h7.9L16.2,8H4.9C3.9,8,3.2,8.6,3,9.8
		c0,0.1-0.5,1.6-1.3,4.6c-0.1,0.4-0.2,0.8-0.2,1.2c0,0.7,0.2,1.3,0.7,1.7c0.4,0.4,1,0.6,1.6,0.6h6.1c0.6,0,0.9,0.2,0.9,0.6
		c0,0.1,0,0.1,0,0.2c0,0-0.2,0.2-0.3,0.7c-0.2,0.6-0.7,0.9-1.4,0.9H1.1L0,24h11.3c0.5,0,1-0.2,1.3-0.5c0.2-0.3,0.5-0.7,0.6-1.3
		c0.6-2.1,1.1-3.7,1.5-4.7C14.8,17,14.9,16.6,14.9,16.2z"/>
</g>
</svg>
